<svg id="Layer_1" height="512" viewBox="0 0 24 24" width="512" xmlns="http://www.w3.org/2000/svg" data-name="Layer 1"><g><path d="m19.54 9h-.54v-1a7 7 0 0 0 -14 0v1h-.54a1.962 1.962 0 0 0 -1.96 1.96v10.08a1.962 1.962 0 0 0 1.96 1.96h15.08a1.962 1.962 0 0 0 1.96-1.96v-10.08a1.962 1.962 0 0 0 -1.96-1.96zm-13.54-1a6 6 0 0 1 12 0v1h-2v-1a4 4 0 0 0 -8 0v1h-2zm9 1h-6v-1a3 3 0 0 1 3-3 3.017 3.017 0 0 1 3 3zm5.5 12.04a.95.95 0 0 1 -.96.96h-15.08a.95.95 0 0 1 -.96-.96v-10.08a.95.95 0 0 1 .96-.96h15.08a.95.95 0 0 1 .96.96z"/><path d="m12 12a2.5 2.5 0 0 0 -2.5 2.5 2.476 2.476 0 0 0 1 2v2a1.5 1.5 0 0 0 3 0v-2a2.476 2.476 0 0 0 1-2 2.5 2.5 0 0 0 -2.5-2.5zm.748 3.8a.5.5 0 0 0 -.248.432v2.268a.5.5 0 0 1 -1 0v-2.27a.5.5 0 0 0 -.248-.432 1.5 1.5 0 1 1 1.5 0z"/></g></svg>