<svg height="512" viewBox="0 0 24 24" width="512" xmlns="http://www.w3.org/2000/svg"><g id="Layer_2" data-name="Layer 2"><path d="m21 9.25h-5a1.76 1.76 0 0 0 -1.75 1.75v11a.76.76 0 0 0 .75.75h6a1.76 1.76 0 0 0 1.75-1.75v-10a1.76 1.76 0 0 0 -1.75-1.75zm-1.5 10.5h-2a.75.75 0 0 1 0-1.5h2a.75.75 0 0 1 0 1.5zm0-3h-2a.75.75 0 0 1 0-1.5h2a.75.75 0 0 1 0 1.5zm0-3h-2a.75.75 0 0 1 0-1.5h2a.75.75 0 0 1 0 1.5z"/><path d="m6.75 18.75h3.5v4h-3.5z"/><path d="m13.6 5.06-9.67-3.52a1.27 1.27 0 0 0 -1.15.15 1.26 1.26 0 0 0 -.53 1v18.31a1.76 1.76 0 0 0 1.75 1.75h1.25v-4.25a1.25 1.25 0 0 1 1.25-1.25h4a1.25 1.25 0 0 1 1.25 1.25v4.25h2.25a.76.76 0 0 0 .75-.75v-15.3a1.75 1.75 0 0 0 -1.15-1.64zm-7.1 2.19h2.5a.75.75 0 0 1 0 1.5h-2.5a.75.75 0 0 1 0-1.5zm4 7.5h-4a.75.75 0 0 1 0-1.5h4a.75.75 0 0 1 0 1.5zm0-3h-4a.75.75 0 0 1 0-1.5h4a.75.75 0 0 1 0 1.5z"/></g></svg>