<svg id="Layer_1" enable-background="new 0 0 128 128" height="512" viewBox="0 0 128 128" width="512" xmlns="http://www.w3.org/2000/svg"><path d="m85.8 17.2c-6.6 0-13 2.6-17.7 7.3l-17.6 17.6c-1.4 1.4-2.6 2.9-3.6 4.6-1.7 1-3.2 2.2-4.6 3.6l-17.6 17.6c-9.7 9.8-9.6 25.7.2 35.4 9.7 9.6 25.4 9.6 35.2 0l17.6-17.6c1.4-1.4 2.6-2.9 3.6-4.6 1.7-1 3.2-2.2 4.6-3.6l17.6-17.6c9.8-9.7 9.8-25.6 0-35.3-4.7-4.8-11-7.5-17.7-7.4zm-10.6 65.9-17.6 17.6c-8.4 8.4-22 8.4-30.4 0s-8.4-22 0-30.4l16.8-16.7c-.8 3.2-1 6.5-.5 9.7l-11.8 11.6c-5.9 5.9-5.9 15.4 0 21.2s15.4 5.9 21.2 0l17.6-17.6c5.8-5.8 6-15.5-.2-21.4-3-2.9-7.1-4.4-11.5-4.1.3-.5.7-.9 1.2-1.4l4.7-4.7c4.1.9 7.8 3 10.6 5.9 8.3 8.4 8.3 22-.1 30.3zm-30.9-15.8c2.4 7.8 8.5 13.8 16.3 16.3l-10.1 10.1c-4.4 4.6-11.7 4.7-16.3.3-4.7-4.5-4.7-12 0-16.5zm15.7.6c-2.9-2.9-4-7.1-3-11.1 3.8-1 8 0 11 2.9 3.1 3 4.1 7.3 3.1 11.2-3.9 1-8.2-.1-11.1-3zm17.7-17.7c-2.8-2.8-6.3-4.9-10.1-6.1l10.1-10.1c4.4-4.6 11.7-4.7 16.3-.2 4.7 4.5 4.6 12 0 16.5l-10.2 10.1c-1.2-3.8-3.3-7.3-6.1-10.2zm23.3 7.1-16.8 16.8c.8-3.2 1-6.4.5-9.7l11.7-11.7c5.9-5.9 5.9-15.4 0-21.2-5.9-5.9-15.4-5.9-21.2 0-17.7 17.7.9-1-17.6 17.6-5.4 5.4-6.4 14.8 0 21.2 3 3 7.1 4.7 11.7 4.3-.3.5-.7.9-1.2 1.4l-4.7 4.7c-4.3-1-8-3.1-10.8-6.1-8.2-8.5-7.9-21.9.3-30.1l17.6-17.6c8.5-8.3 22.1-8.3 30.4.2 8.4 8.4 8.4 21.9.1 30.2z"/></svg>